<svg width="66" height="45" viewBox="0 0 66 45" fill="none" xmlns="http://www.w3.org/2000/svg">
<g clip-path="url(#clip0_4_9)">
<path d="M0.417687 5.85338C0.668099 4.34999 0.999268 2.86203 1.40981 1.39636C2.81199 0.966509 4.24309 0.643443 5.6914 0.429771C10.1393 -0.29849 14.6848 -0.0834601 19.0489 1.06164C23.4129 2.20674 27.503 4.25771 31.0679 7.08845L32.9476 8.69939C33.522 8.16244 34.1486 7.62545 34.7751 7.14215C40.5579 2.49148 47.6935 -0.0240199 55.0345 0.000173869C56.7829 0.00977617 58.5283 0.153371 60.256 0.429766C61.7388 0.667292 63.2041 1.00817 64.642 1.45004C65.0525 2.89758 65.3837 4.36767 65.6341 5.85337C66.2998 10.4386 66.0554 15.1149 64.9157 19.6002C63.776 24.0856 61.7646 28.2871 59.0028 31.9511C58.4807 32.6492 57.9585 33.2936 57.4363 33.8843C57.0708 34.2602 56.7053 34.6898 56.3399 35.0657C56.0788 35.2805 55.8699 35.549 55.6089 35.7637C55.3478 35.9785 55.0345 36.3008 54.7734 36.5692C49.2032 41.5786 42.1635 44.5275 34.7751 44.9463C34.2007 44.9463 33.6264 45 33.052 45C32.3732 45 31.7466 45 31.0679 44.9463C29.9812 44.9037 28.899 44.7781 27.8306 44.5704C26.3822 44.3567 24.9511 44.0336 23.5489 43.6038C19.0309 42.2187 14.8611 39.8363 11.3306 36.6229C11.0174 36.3545 10.7563 36.086 10.443 35.8174C10.1297 35.549 9.97308 35.3342 9.71199 35.1194C9.29422 34.6898 8.92878 34.2602 8.56327 33.8843C8.04108 33.2936 7.51897 32.6492 7.04904 32.0048C2.56222 26.031 0.0879228 18.7175 9.76474e-07 11.1696C0.00935446 9.38926 0.148972 7.61216 0.417687 5.85338ZM33.0572 14.3486C32.3941 15.1863 31.731 16.0239 31.12 16.9154C29.8242 18.8559 28.7551 20.9467 27.935 23.1445C28.9907 22.9813 30.0537 22.8738 31.12 22.8223C31.7466 22.7686 32.3732 22.7686 32.9998 22.7686C33.6264 22.7686 34.2007 22.8223 34.8273 22.8223C35.9761 22.876 37.0726 23.0371 38.2213 23.1981C37.3729 20.8714 36.2319 18.6689 34.8273 16.6469C34.2826 15.845 33.6915 15.0775 33.0572 14.3486ZM43.8083 35.7638C43.7582 36.8782 43.6536 37.9894 43.495 39.0931C45.6502 38.2312 47.7004 37.1138 49.6041 35.7637C50.4564 35.1667 51.2757 34.5213 52.0582 33.8306C51.275 33.1862 50.4918 32.5418 49.7085 31.9511C47.7636 30.5621 45.659 29.4258 43.4428 28.5681C43.5994 29.6957 43.7039 30.8235 43.8083 31.9511C43.8605 32.5955 43.8605 33.2399 43.8605 33.8843C43.8605 34.5287 43.8605 35.173 43.8083 35.7638ZM54.7212 31.1456C59.5309 25.651 62.1748 18.5089 62.1357 11.1159C62.1367 8.93403 61.9268 6.75745 61.5091 4.61829C59.4194 4.13559 57.28 3.91917 55.1389 3.9739C47.9485 3.92382 41.0004 6.64413 35.6628 11.5992C38.7884 15.2497 41.1046 19.5556 42.4507 24.2184C46.9992 25.5396 51.1953 27.9085 54.7212 31.1456ZM26.0552 35.7638C26.1578 37.3164 26.3672 38.8597 26.6818 40.3819C28.145 40.7017 29.628 40.9171 31.12 41.0263C31.7466 41.0799 32.3732 41.0799 32.9998 41.0799C33.6264 41.0799 34.2007 41.0799 34.8273 41.0263C36.3889 40.9208 37.9415 40.7055 39.4744 40.3819C39.789 38.8597 39.9984 37.3164 40.1011 35.7638C40.1532 35.1194 40.1532 34.5287 40.1532 33.8843C40.1532 33.2399 40.1011 32.5955 40.0488 31.8974C39.9544 30.3406 39.7274 28.7953 39.37 27.2793C37.8547 26.9557 36.3193 26.7404 34.7751 26.6349C34.2007 26.5812 33.6264 26.5812 32.9998 26.5812C32.3732 26.5812 31.6945 26.5812 31.0156 26.6349C29.5404 26.7404 28.0745 26.9558 26.6296 27.2793C26.315 28.8015 26.1056 30.3448 26.003 31.8974C25.9508 32.5418 25.9508 33.1862 25.9508 33.8306C25.9508 34.475 26.003 35.173 26.0552 35.7638ZM16.3955 35.7638C18.3054 37.1349 20.3754 38.2535 22.5568 39.0931C22.4002 37.9655 22.2436 36.8914 22.1913 35.7638C22.1391 35.1194 22.1391 34.5287 22.0869 33.8843C22.0347 33.2399 22.1391 32.5955 22.1391 31.9511C22.2064 30.8357 22.3284 29.7245 22.5046 28.6218C20.3494 29.4837 18.2992 30.601 16.3955 31.9511C15.5602 32.5487 14.7583 33.1941 13.9936 33.8843C14.7589 34.5572 15.5608 35.1847 16.3955 35.7638ZM11.2784 31.092C14.8253 27.8613 19.0119 25.4612 23.5489 24.0573C24.9163 19.3924 27.2499 15.0873 30.3891 11.438C25.0861 6.50086 18.1702 3.79773 11.0174 3.86651C8.84086 3.8567 6.66985 4.09078 4.54269 4.5646C4.0821 6.69775 3.85441 8.87714 3.86391 11.0622C3.79115 18.4614 6.43948 25.6158 11.2784 31.092Z" fill="#EA2E00"/>
<circle cx="33" cy="33" r="2" fill="#EA2E00"/>
</g>
<defs>
<clipPath id="clip0_4_9">
<rect width="66" height="45" fill="white" transform="matrix(-1 8.74228e-08 8.74228e-08 1 66 0)"/>
</clipPath>
</defs>
</svg>
